/* XPM */
static char *button_blue_arrow[] = {
/* columns rows colors chars-per-pixel */
"24 24 2 1",
". c blue",
"  c darkgrey",
/* pixels */
"                        ",
"                        ",
"              .         ",
"              ..        ",
"              ...       ",
"              ....      ",
"              .....     ",
"  ..................    ",
"  ...................   ",
"  ....................  ",
"  ..................... ",
"  ......................",
"  ..................... ",
"  ....................  ",
"  ...................   ",
"  ..................    ",
"              .....     ",
"              ....      ",
"              ...       ",
"              ..        ",
"              .         ",
"                        ",
"                        ",
"                        "
};
EOT