/* XPM */
static char *arrow_right_blue[] = {
/* columns rows colors chars-per-pixel */
"24 24 2 1",
". c blue",
"  c orange",
/* pixels */
".                       ",
"..                      ",
"...                     ",
"....                    ",
".....                   ",
"......                  ",
".......                 ",
"........                ",
".........               ",
"..........              ",
"...........             ",
"............            ",
".............           ",
"..............          ",
"...............         ",
"................        ",
".................       ",
"..................      ",
"...................     ",
"....................    ",
".....................   ",
"......................  ",
"....................... ",
"........................"
};
EOT