/* XPM */
static char * trash0a_xpm[] = {
"32 32 16 1",
" 	c None",
".	c #000000",
"+	c #005200",
"@	c #008400",
"#	c #632900",
"$	c #404040",
"%	c #707070",
"&	c #949494",
"*	c #9494CE",
"=	c #CE6300",
"-	c #FFCE00",
";	c #CD9689",
">	c #FFFF90",
",	c #BDBDBD",
"'	c #DEDEDE",
")	c #FF29FF",
"   ...    ...          ...      ",
"    .    .,&&.  .....   .       ",
"        .''.....&&&&&.          ",
"      .....,,,&&&.....       ...",
" .....''',,,......==.         . ",
".''''''.....*.=======.   ...    ",
".......;;;.**.=....==.    .     ",
" .%%'''.;;.***.####...          ",
" .&'''''...***.####.>..         ",
" .&'%&&'%&&....####.>>.    ...  ",
" .&'%&&'%&&,%&&.###.>>.     .   ",
" .&'%&&'%&&,%&&&...%.>.         ",
" .&'%&&'%&&,%&&&$%&%..          ",
" .&'%&&'%&&,%&&&$%&%.           ",
" .&'%&&'%&&,%&&&$%&%.           ",
" .&'%&&'%&&,%&&&$%&%.           ",
" .&'%&&'%&&,%&&&$%&%.           ",
" .&'%&&'%&&,%&&&$%&==           ",
" .&'%&&'%&&,%&&&$%=--=          ",
" .&'%&&'%&&,%&&&$%=--===        ",
" .&'%&&,%&&==%&&$%=;;;;-=       ",
" .&'%&&==&=--=&&$%=;));-=       ",
"+.&'%&=--==;-=%&$=-;));-=$$     ",
"+.&'%+=--;;;;==%$=-;;;;=@'@$    ",
"@.&++&==;;));;-=$%==---='+@$    ",
"+@+'%&&,=;));;-=$%%%==='@+@$  @ ",
"+@#+%&&,=;;;;--=$%$$+++@@+@$ @@ ",
"@#&'%&&=--;;-==%@%@$++@$++@@#@  ",
"$#+$#@&=----=&%%$@$@@$@##+##@@ @",
"+$#++&&,====&&&%@@@#@#+#+$##.+@+",
"+##+'''',,&&&&%%###+###+++$@+@+ ",
"##$$#.............#@#$###++@@@+ "};
EOT