/* XPM */
static char * disk3_6a_xpm[] = {
"32 32 17 1",
" 	c None",
".	c #000000",
"+	c #FFFFFF",
"@	c #E6E6FA",
"#	c #FFFACD",
"$	c #BEBEBE",
"%	c #2F4F4F",
"&	c #F5DEB3",
"*	c #708090",
"=	c #0000FF",
"-	c #1E90FF",
";	c #000080",
">	c #FFFFFF",
",	c #FFFFFF",
"'	c #FFFFFF",
")	c #FFFFFF",
"!	c #FFFFFF",
"                                ",
"  ..............................",
" ..==;=====================-===.",
" .===;=====================-===.",
" .===;=====================-=.=.",
" .===;=====================-=.=.",
" .===;=====================-===.",
" .===;=====================-===.",
" .===;=====================-===.",
" .===;=====================-===.",
" .===;=====================-===.",
" .===;=====================-===.",
" .===;=====================-===.",
" .===;=====================-===.",
" .===;=====================-===.",
" .===;=====================-===.",
" .===;=====================-===.",
" .===-----------------------===.",
" .=============================.",
" .=============================.",
" .=============================.",
" .========;;;;;;;;;;;;;;;;;====.",
" .========;$$$$$$$$$$$$.==--===.",
" .========;$$$$$$$$$$$$.===-===.",
" .========;$$....!$$$$$.===-===.",
" .========;$$.===!$$$$$.===-===.",
" .========;$$.===!$$$$$.===-===.",
" .========;$$.===!$$$$$.===-===.",
" .========;$$.===!$$$$$.===-===.",
" .========;$$!!!!!$$$$$.===-===.",
" ..=======;$$$$$$$$$$$$.===-==..",
"  ............................. "};
EOT