/* XPM */
static char *eye[] = {
/* columns rows colors chars-per-pixel */
"20 18 123 2",
"5  c #00004B",
"a  c gray26",
"@. c #A4A3B1",
"q  c #131142",
"O  c #0D0D0F",
"9. c #E7E7E7",
"^  c #9D9D9F",
"e  c #191A5D",
"-. c #C0C0C0",
"$  c #151515",
"'  c gray63",
"4  c #030244",
"<  c #333237",
"C  c gray46",
"f  c #42425A",
"y  c #28285A",
"{  c gray66",
":  c #2E2E36",
"0. c #EAEAEA",
" . c gray67",
"n  c #686868",
"-  c #0A0837",
"N  c #70706E",
"V  c #727272",
"y. c #F1F1F1",
"1. c #D7D7D7",
"v  c gray39",
"J  c #6B6B87",
"t  c #1E2049",
"l  c #5A5A5A",
"]  c gray64",
"4. c #CAC9E8",
"e. c #E6E6FF",
"<. c #D5D5D5",
"v. c #FDFFFE",
"S  c #7E7E7E",
"3  c #3A3A3A",
"_  c #8F8FB3",
"2  c gray22",
"I  c #8E8E8E",
"j  c #51514F",
"K  c #7E7D83",
"7  c #0A0851",
"&  c #050529",
"p  c #20217E",
"w. c #E0E0FA",
"x  c #5D5E60",
"R  c #8E8D9B",
"5. c #E3E1E2",
"b  c #68676D",
">  c #2B293F",
"V. c none",
"k  c #505251",
"g. c #FBFBFB",
"U  c #818092",
"G  c #515187",
"F  c #2B2B8B",
"Q  c #949597",
"M  c gray42",
":. c #C6C6C4",
"L  c #838182",
"t. c #EDECF2",
"1  c #35333E",
"6. c #E2E2E2",
"u  c #343247",
"p. c #F5F5F7",
"a. c #F6F5FF",
"#  c #0A0A12",
"T  c #888797",
"%  c gray12",
"$. c #B0B1B5",
"[  c #A3A4A9",
"   c #070707",
"7. c #E3E4E6",
",  c #323232",
"9  c #080959",
"P  c #898987",
"s  c #484743",
"8  c #0D0D57",
"|  c #AAAAAA",
"~  c #9A9A9C",
"E  c gray57",
"8. c gray90",
"d. c #FAF9F5",
",. c #D0D2CF",
"r. c #E8E7F9",
"m  c #6A686B",
"=  c #07073B",
">. c gray79",
"@  c #0A0911",
"u. c gray95",
"!  c #999798",
"X  c #05050D",
"q. c #EFEFEF",
"A  c gray48",
"=. c #908FC8",
"r  c #0F1060",
"*  c #06052F",
"`  c #9D9FAC",
"%. c #B8B7BC",
"X. c #ACACAC",
"f. c #F9F9F9",
"*. c #8381D5",
"Y  c #848490",
"}  c #A9A9A9",
"(  c #8585A7",
"l. c #FDFDFB",
".. c #AEADA9",
"o  c #0C0A0B",
"H  c #58579D",
"d  c #4E4E4E",
"i  c #2B296A",
".  c #060608",
"+. c #AFAFAF",
"3. c #DFDFDF",
"6  c #090947",
"&. c #BCBCBC",
"+  c #000115",
"W  c #959595",
"w  c #13124B",
"h  c #4F4E53",
"2. c #DDDDDD",
";  c #161535",
/* pixels */
"V.V.V.V.V.V.V.V.V.V.v.V.V.V.V.V.V.V.V.V.",
"V.V.V.l.V.V.V.V.V.V.V.v.V.V.v.V.V.V.V.V.",
"V.V.V.V.V.V.V.V.V.v.V.V.V.V.V.V.V.V.V.V.",
"V.V.V.V.V.V. .u.-.f.3.V.6.3.V.V.V.V.V.V.",
"V.V.V.l.S g.I X.M <.l y.X.} 9.q.V.V.V.V.",
"V.0.{ V.C +.| X.^ %.b t.~ +.I  .E V.V.V.",
"V.d.V L 8.d ! m h 1 u U : Q 2 >.V V.V.V.",
"V.] 5.C v $ o @ > ; * & + # < a 2.A u.V.",
"V.&.k N   N 1.r.=.8 7 6 t f X . l n f.V.",
"V.V.p.v P g.v.e.8 p *.H G v.Y O S v.V.V.",
"V.V.g.j ..l.V.4.9 F 5 i w a.V.W , g.V.V.",
"V.V.V.:.s d.V.w.e r 4 6 q a.V.n % V.V.V.",
"V.V.V.v.,.k x ` _ y = - J @.K 3 ' g.V.V.",
"V.V.V.V.v.v.7.[ T T ( ( R $.-.V.V.V.V.V.",
"V.V.V.V.V.V.v.V.V.v.v.V.V.V.V.V.V.V.V.V.",
"V.V.V.V.V.V.V.V.V.V.V.V.V.V.V.V.V.V.V.V.",
"V.V.V.V.V.V.V.V.V.V.V.V.V.V.V.V.V.V.V.V.",
"V.V.V.V.V.V.V.V.V.V.V.V.V.V.V.V.V.V.V.V."
};
EOT