/* XPM */
static char * book9a_xpm[] = {
"32 32 17 1",
" 	c None",
".	c #000000",
"+	c #CC0000",
"@	c #009900",
"#	c #999900",
"$	c #000099",
"%	c #990099",
"&	c #009999",
"*	c #999999",
"=	c #CCCCCC",
"-	c #FF0000",
";	c #00FF00",
">	c #FFFF00",
",	c #0000FF",
"'	c #FF00FF",
")	c #00FFFF",
"!	c #FFFFFF",
"                                ",
"  .....                         ",
"...!!!..                        ",
".,.!!!.=.                       ",
".,.!!!.==.                      ",
".,.!!!.===.                     ",
".,.!!!.====.    ............    ",
".,.!!!.====.= ..!!!!!!!!!!!..   ",
".,.!!!.====*..=!!!!!!!!!!!!.=...",
".,.!!!.====*.==!!!!!!!!!!!!.=.,.",
".,.!!!.====*.==!!!!!!!!!!!!.=.,.",
".,.!!!.====*.==!!!!!!!!!!!!.=.,.",
".,.!!!.====*.==!!!!!!!!!!!!.=.,.",
".,.!!!.====*.==!!!!!!!!!!!!.=.,.",
".,.!!!.====*.==!!!!!!!!!!!!.=.,.",
".,.!!!.====*.==!!!!!!!!!!!!.=.,.",
".,.!!!.====*.==!!!!!!!!!!!!.=.,.",
".,.!!!.====*.==!!!!!!!!!!!!.=.,.",
".,.!!!.====*.==!!!!!!!!!!!!.=.,.",
".,.!!!.====*.==!!!!!!!!!!!!.=.,.",
".,.!!!.====*.==!!!!!!!!!!!!.=.,.",
".,.!!!.====*.==!!!!!!!!!!!!.=.,.",
".,.===.====*.==!!!!!!!!!!!!.=.,.",
" .,.===.===*.==!!!!!!!!!!!!.=.,.",
"  .,.===.==*.==!!!!!!!!!!!!.=.,.",
"   .,.===.=*.==!!!!!!!!!!!!.=.,.",
"    .,.==.=*.==*............=.,.",
"     .,.==.*.=.*=============.,.",
"      .,.=.*..................,.",
"       .,....,,,,,,,,,,,,,,,,,,.",
"       .,,,,,...................",
"       *.....                   "};
EOT