/* XPM */
static char *exit[] = {
/* columns rows colors chars-per-pixel */
"4 24 3 1",
" 	s None	c None",
". c darkgray",
"w c white",
/* pixels */
" .  ",
" .w ",
" .w ",
" .w ",
" .w ",
" .w ",
" .w ",
" .w ",
" .w ",
" .w ",
" .w ",
" .w ",
" .w ",
" .w ",
" .w ",
" .w ",
" .w ",
" .w ",
" .w ",
" .w ",
" .w ",
" .w ",
" .w ",
" ww "};
EOT