/* XPM */
static char *underscore[] = {
/* columns rows colors chars-per-pixel */
"24 24 2 1",
". c #0000AA",
"  c lightblue",
/* pixels */
"                        ",
"                        ",
"                        ",
"                        ",
"                        ",
"                        ",
"                        ",
"                        ",
"                        ",
"                        ",
"                        ",
"                        ",
"                        ",
"                        ",
"                        ",
"                        ",
"                        ",
"                        ",
"                        ",
"                        ",
"........................",
"........................",
"........................",
"........................"
};
EOT