/* XPM */
static char * edit2b_xpm[] = {
"64 64 11 1",
" 	c None",
".	c #000000",
"+	c #0000FF",
"@	c #7B0000",
"#	c #7B7B00",
"$	c #7B7B7B",
"%	c #BDBDBD",
"&	c #E7FFE7",
"*	c #FF0000",
"=	c #FFFF00",
"-	c #FFFFFF",
"                                                                ",
"                                                                ",
"                                                                ",
"                                                                ",
"                                                                ",
"                                                                ",
"                                                                ",
"                                                                ",
"                ..............................                  ",
"                .---%+++%---%---%---%---%---.$                  ",
"                .---%+++%---%---%---%---%---.$                  ",
"                .---%+++%---%---%---%---%---.$                  ",
"                .%%%%%%%%%%%%%%%%%%%%%%%%%%%.$                  ",
"                .---%+++%+++%---%---%---%---.$                  ",
"                .---%+++%+++%---%---%---%---.$                  ",
"                .---%+++%+++%---%---%---%---.$                  ",
"                .%%%%%%%%%%%%%%%%%%%%%%%%%%%.$                  ",
"                .---%+++%+++%+++%---%---%---.$                  ",
"                .---%+++%+++%+++%---%---%---.$                  ",
"                .---%+++%+++%+++%---%---%---.$                  ",
"                .%%%%%%%%%%%%%%%%%%%%%%%%%%%.$                  ",
"                .---%+++%+++%+++%+++%---%---.$                  ",
"                .---%+++%+++%+++%+++%---%---.$                  ",
"                .---%+++%+++%+++%+++%---%---.$                  ",
"                .%%%%%%%%%%%%%%%%%%%%%%%%%%%.$                  ",
"                .---%+++%+++%+++%---%+++%---.$                  ",
"                .---%+++%+++%+++%---%+++%---.$                  ",
"                .---%+++%+++%+++%---%+++%---.$                  ",
"                .%%%%%%%%%%%%%%%%%%%%%%%%%%%.$                  ",
"                .---%+++%---%+++%---%---%---.$                  ",
"                .---%+++%---%+++%---%---%---.$                  ",
"                .---%+++%---%+++%---%---%---.$                  ",
"                .%%%%%%%%%%%%%%%%%%%%%%%%%%%.$                  ",
"                .---%---%---%---%+++%---%---.$                  ",
"                .---%---%---%---%+++%---%---.$                  ",
"                .---%---%---%---%+++%---%---.$                  ",
"                .............................$                  ",
"                 $$$$$$$$$$$$$$$$$$$$$$$$$$$$$                  ",
"                                                                ",
"                                                                ",
"                .. ....          .. ... .                       ",
"                                                                ",
"                .. .... ..       .....                          ",
"                                                                ",
"                .....            ....                           ",
"                                                                ",
"                ... .... ..      .... .....                     ",
"                                                                ",
"                ...   ....       ...  .. .                      ",
"                                                                ",
"                .. . . ...       .... ... ..                    ",
"                                                                ",
"                .......          .....                          ",
"                                                                ",
"                ...  .. ..       ....... ...                    ",
"                                                                ",
"                                                                ",
"                                                                ",
"                                                                ",
"                                                                ",
"                                                                ",
"                                                                ",
"                                                                ",
"                                                                "};
EOT