/* XPM */
static char * scroll0a_xpm[] = {
"32 32 11 1",
" 	c None",
".	c #000000",
"+	c #00007B",
"@	c #0000FF",
"#	c #00FFFF",
"$	c #7B7B00",
"%	c #7B7B7B",
"&	c #BDBDBD",
"*	c #E7FFE7",
"=	c #FFFF00",
"-	c #FFFFFF",
"              %.....%           ",
"          %...---%%&.%          ",
"       %..----%%%---&.%        +",
"    %..---%%%%----%%-&.       ++",
"  ..---%%%-----%%%----.      ++#",
"..%--%%-----%%%-------.     ++##",
"...%-----%%%------%%--.    ++##@",
".%.%.--%%------%%%----.   ++##@@",
".%...%------%%%-------.  ++#@@@ ",
" ... .---%%%------%%--. ++#@@@  ",
"     .-%%------%%%----. .+@@    ",
"     .------%%%-------....@     ",
"     .---%%%------%--.=$.       ",
"     .-%%------%%%--.=$.        ",
"     .------%%%----.%..         ",
"     .---%%%------.---%         ",
"     .-%%------%%-----.         ",
"     .------%%%-------.    ..%. ",
"     .---%%%----------.  ..&&&%.",
"     .-%%-------------%..&----&.",
"     .---------------%.&------&.",
"     .-------------%..&-------&.",
"......-----------%..&--------%.%",
"...&&&.---------%.&---------..% ",
"......---------....%-------.%   ",
"++++++++------&&&&%%%----%.%    ",
"++++##++---------&&%%---..%     ",
"++++##++&--------&&%%-%%%       ",
"++++##++.&-----&&&%%%..%        ",
"++++##++%.&&&&&&%%%..%          ",
"++++++++%%.........%%           ",
"%%%%%%%%%   %%%%%%%%            "};
EOT